<?xml version="1.0" encoding="iso-8859-1"?>
<!-- Generator: Adobe Illustrator 19.0.0, SVG Export Plug-In . SVG Version: 6.00 Build 0)  -->
<svg version="1.1" id="Capa_1" xmlns="http://www.w3.org/2000/svg" xmlns:xlink="http://www.w3.org/1999/xlink" x="0px" y="0px"
	 viewBox="0 0 511.998 511.998" style="enable-background:new 0 0 511.998 511.998;" xml:space="preserve">
<polyline style="fill:#605B58;" points="167.091,380.327 97.576,391.912 119.436,504.395 229.569,504.395 284.574,504.395 "/>
<path style="fill:#75706B;" d="M376.385,125.361H130.539l12.349-98.586c1.622-12.957,15.491-20.51,27.252-14.832l35.515,17.134
	l80.164-14.832l32.118-5.941c23.217-4.289,45.278,11.842,48.208,35.282L376.385,125.361z"/>
<path style="fill:#605B58;" d="M296.281,125.361l26.836-34.825l-24.636-5.231c-14.914-3.163-17.945-23.126-4.643-30.577
	l12.896-7.219l-20.926-33.254l0.01-0.01l32.118-5.941c23.217-4.289,45.278,11.842,48.208,35.282l10.24,81.776
	C376.385,125.361,296.281,125.361,296.281,125.361z"/>
<path style="fill:#F7CB92;" d="M396.915,165.306v228.103l-1.744,45.369H193.894c-14.802,0-26.806-12.004-26.806-26.806v-74.426
	h-36.245V165.306L396.915,165.306L396.915,165.306z"/>
<g>
	<polygon style="fill:#E2B27F;" points="396.915,169.868 396.915,393.409 395.171,438.779 282.858,438.779 282.858,169.868 	"/>
	<polygon style="fill:#E2B27F;" points="396.915,169.868 396.915,233.072 392.847,245.9 130.843,245.9 130.843,169.868 	"/>
</g>
<polyline style="fill:#BA7052;" points="395.169,315.052 314.561,315.052 314.561,195.701 395.17,195.701 "/>
<path style="fill:#75706B;" d="M337.802,119.898H174.196c-52.402,0-100.424,29.244-124.473,75.802l0,0h412.553l0,0
	C438.226,149.144,390.204,119.898,337.802,119.898z"/>
<g>
	<path style="fill:#605B58;" d="M462.276,195.701h-82.121c-12.024-23.278-30.04-42.226-51.604-55.366
		c-21.554-13.129-46.657-20.439-72.864-20.439h82.111c26.198,0,51.31,7.31,72.875,20.439
		C432.236,153.475,450.252,172.423,462.276,195.701z"/>
	<path style="fill:#605B58;" d="M246.596,279.435h-49.659c-12.688,0-22.974-10.285-22.974-22.974v-29.516h95.606v29.516
		C269.57,269.148,259.284,279.435,246.596,279.435z"/>
	<path style="fill:#605B58;" d="M130.843,226.948v51.655c-1.947,0.537-4.005,0.831-6.134,0.831H96.444
		c-12.693,0-22.974-10.28-22.974-22.974v-29.513H130.843z"/>
</g>
<polygon style="fill:#75706B;" points="207.707,391.912 229.564,504.389 394.701,504.389 421.414,356.294 "/>
<path style="fill:#E2B27F;" d="M373.88,315.052h-31.2v-64.943c0-11.757,9.532-21.29,21.29-21.29h9.91
	c11.757,0,21.29,9.532,21.29,21.29v43.654C395.17,305.521,385.638,315.052,373.88,315.052z"/>
<path d="M469.031,192.211c-18.241-35.314-49.223-61.039-85.726-72.794l-3.957-31.601c-0.522-4.166-4.318-7.12-8.49-6.6
	c-4.167,0.522-7.121,4.323-6.6,8.49l3.203,25.573c-9.637-1.957-19.559-2.984-29.658-2.984H174.196
	c-11.931,0-23.617,1.424-34.872,4.137l11.11-88.712c0.465-3.719,2.621-6.88,5.914-8.671c3.293-1.791,7.116-1.885,10.492-0.257
	l35.514,17.13c1.456,0.702,3.097,0.923,4.686,0.629l112.278-20.765c9.151-1.692,18.33,0.401,25.842,5.897
	c7.512,5.496,12.286,13.609,13.442,22.845l2.686,21.445c0.522,4.166,4.322,7.121,8.49,6.6c4.167-0.522,7.121-4.323,6.6-8.49
	l-2.686-21.445c-1.683-13.433-8.626-25.234-19.553-33.229c-10.926-7.994-24.275-11.042-37.587-8.578L206.719,21.145l-33.273-16.05
	c-7.84-3.782-16.723-3.565-24.369,0.597c-7.646,4.161-12.652,11.502-13.733,20.139l-11.949,95.413
	c-34.194,12.468-63.076,37.376-80.428,70.968c-1.218,2.357-1.118,5.179,0.262,7.445s3.841,3.649,6.495,3.649h412.552
	c2.653,0,5.114-1.383,6.495-3.649C470.149,197.39,470.249,194.569,469.031,192.211z M62.896,188.097
	c24.264-37.674,65.836-60.595,111.3-60.595h163.607c45.465,0,87.037,22.92,111.3,60.595H62.896z"/>
<path d="M297.555,61.366l12.891-7.22c3.664-2.052,4.971-6.685,2.919-10.349c-2.052-3.664-6.685-4.97-10.349-2.919l-12.891,7.22
	c-8.852,4.958-13.587,14.642-12.065,24.672c1.524,10.031,8.921,17.873,18.846,19.979l24.636,5.225
	c0.532,0.113,1.063,0.167,1.585,0.167c3.515,0,6.672-2.451,7.431-6.027c0.871-4.108-1.753-8.145-5.861-9.016l-24.635-5.225
	c-5.605-1.188-6.75-5.953-6.967-7.385C292.878,69.053,292.556,64.165,297.555,61.366z"/>
<path d="M197.343,370.498c4.199,0,7.604-3.404,7.604-7.604s-3.404-7.604-7.604-7.604h-30.255c-4.199,0-7.604,3.404-7.604,7.604
	v49.079c0,18.973,15.437,34.41,34.41,34.41c4.199,0,7.604-3.404,7.604-7.604c0-4.199-3.404-7.604-7.604-7.604
	c-10.587,0-19.202-8.615-19.202-19.202v-41.475H197.343z"/>
<path d="M123.24,287.038v50.509c0,4.199,3.404,7.604,7.604,7.604h36.245c4.199,0,7.604-3.404,7.604-7.604s-3.404-7.604-7.604-7.604
	h-28.641v-95.394h27.913v21.912c0,16.86,13.717,30.577,30.577,30.577h49.659c16.86,0,30.577-13.717,30.577-30.577v-21.912h29.784
	v80.503c0,4.199,3.404,7.604,7.604,7.604h28.119c4.199,0,7.604-3.404,7.604-7.604v-64.943c0-7.546,6.14-13.686,13.686-13.686h9.91
	c7.546,0,13.686,6.14,13.686,13.686l-0.001,43.673c-0.011,7.537-6.145,13.667-13.685,13.667c-4.199,0-7.604,3.404-7.604,7.604
	s3.404,7.604,7.604,7.604c4.949,0,9.608-1.252,13.685-3.453v21.186c0,4.199,3.404,7.604,7.604,7.604s7.604-3.404,7.604-7.604
	l0.001-124.41c0-4.199-3.404-7.604-7.604-7.604s-7.604,3.404-7.604,7.604v8.691c-4.076-2.201-8.737-3.453-13.686-3.453h-9.91
	c-15.931,0-28.893,12.962-28.893,28.893v57.34h-12.911V215.98c0-4.199-3.404-7.604-7.604-7.604s-7.604,3.404-7.604,7.604v3.363
	L73.47,219.345c-4.199,0-7.604,3.404-7.604,7.604v29.513c0,16.86,13.717,30.577,30.577,30.577L123.24,287.038L123.24,287.038z
	 M123.24,271.83h-16.766l16.766-36.17V271.83z M181.568,256.461v-21.912h40.728l-17.282,37.282h-8.076
	C188.463,271.831,181.568,264.936,181.568,256.461z M261.966,256.461c0,8.475-6.895,15.37-15.37,15.37h-24.82l17.282-37.282h22.908
	V256.461z M81.074,256.46v-21.909h25.918l-16.684,35.992C84.88,268.169,81.074,262.754,81.074,256.46z"/>
<path d="M420.164,348.794l-213.707,35.618c-2.025,0.338-3.825,1.478-4.996,3.164c-1.171,1.686-1.61,3.772-1.219,5.787
	l21.856,112.477c0.694,3.573,3.824,6.153,7.464,6.153H394.7c3.678,0,6.83-2.634,7.483-6.253l26.714-148.095
	c0.439-2.434-0.334-4.93-2.07-6.691C425.089,349.193,422.603,348.388,420.164,348.794z M388.347,496.785H235.832l-19.172-98.658
	l195.353-32.559L388.347,496.785z"/>
<path d="M204.222,496.791h-78.518l-11.344-58.371c-0.802-4.121-4.792-6.814-8.915-6.014c-4.122,0.801-6.815,4.792-6.014,8.915
	l12.539,64.524c0.694,3.573,3.824,6.153,7.464,6.153h84.785c4.199,0,7.604-3.404,7.604-7.604S208.421,496.791,204.222,496.791z"/>
<path d="M103.91,424.502c4.122-0.802,6.815-4.792,6.014-8.915l-3.393-17.458l36.458-6.076c4.143-0.69,6.941-4.608,6.25-8.75
	c-0.69-4.143-4.611-6.938-8.75-6.25l-44.162,7.36c-2.025,0.338-3.826,1.478-4.996,3.164s-1.61,3.773-1.219,5.787l4.883,25.125
	c0.706,3.633,3.889,6.155,7.456,6.155C102.932,424.643,103.42,424.597,103.91,424.502z"/>
<g>
</g>
<g>
</g>
<g>
</g>
<g>
</g>
<g>
</g>
<g>
</g>
<g>
</g>
<g>
</g>
<g>
</g>
<g>
</g>
<g>
</g>
<g>
</g>
<g>
</g>
<g>
</g>
<g>
</g>
</svg>
